<svg width="44" height="7" viewBox="0 0 44 7" fill="none" xmlns="http://www.w3.org/2000/svg">
<path d="M3.96254 0.444458C2.275 0.444458 0.906982 1.81248 0.906982 3.50001C0.906982 5.18755 2.275 6.55557 3.96254 6.55557H8.62469C10.3122 6.55557 11.6802 5.18755 11.6802 3.50001C11.6802 1.81248 10.3122 0.444458 8.62469 0.444458H3.96254ZM20.1224 0.444458C18.4349 0.444458 17.0669 1.81248 17.0669 3.50001C17.0669 5.18755 18.4349 6.55557 20.1224 6.55557H24.7846C26.4721 6.55557 27.8401 5.18755 27.8401 3.50001C27.8401 1.81248 26.4721 0.444458 24.7846 0.444458H20.1224ZM36.2823 0.444458C34.5948 0.444458 33.2268 1.81248 33.2268 3.50001C33.2268 5.18755 34.5948 6.55557 36.2823 6.55557H40.9445C42.632 6.55557 44 5.18755 44 3.50001C44 1.81248 42.632 0.444458 40.9445 0.444458H36.2823Z" fill="black"/>
</svg>
