<svg width="21" height="5" viewBox="0 0 21 5" fill="none" xmlns="http://www.w3.org/2000/svg">
<path d="M2.41719 0C1.08221 0 0 1.08221 0 2.41719C0 3.75216 1.08221 4.83437 2.41719 4.83437H2.83281C4.16779 4.83437 5.25 3.75216 5.25 2.41719C5.25 1.08221 4.16779 0 2.83281 0H2.41719ZM10.2922 0C8.95721 0 7.875 1.08221 7.875 2.41719C7.875 3.75216 8.95721 4.83437 10.2922 4.83437H10.7078C12.0428 4.83437 13.125 3.75216 13.125 2.41719C13.125 1.08221 12.0428 0 10.7078 0H10.2922ZM18.1672 0C16.8322 0 15.75 1.08221 15.75 2.41719C15.75 3.75216 16.8322 4.83437 18.1672 4.83437H18.5828C19.9178 4.83437 21 3.75216 21 2.41719C21 1.08221 19.9178 0 18.5828 0H18.1672Z" fill="black"/>
</svg>
