<svg width="25" height="23" viewBox="0 0 25 23" fill="none" xmlns="http://www.w3.org/2000/svg">
<path d="M6.09302 0.641235H18.093C21.405 0.641235 24.093 3.06395 24.093 6.05161V12.5484V13.6348C24.093 16.6225 21.405 19.0452 18.093 19.0452H16.293C15.969 19.0452 15.537 19.2407 15.333 19.4798L13.533 21.6417C12.741 22.5978 11.445 22.5978 10.653 21.6417L8.85302 19.4798C8.62502 19.2081 8.26502 19.0452 7.89302 19.0452H6.09302C2.78102 19.0452 0.0930176 16.6225 0.0930176 13.6348V6.05161C0.0930176 3.06395 2.78102 0.641235 6.09302 0.641235ZM10.893 13.4067H18.093C18.585 13.4067 18.993 13.0373 18.993 12.5919C18.993 12.1464 18.585 11.777 18.093 11.777H10.893C10.401 11.777 9.99302 12.1464 9.99302 12.5919C9.99302 13.0373 10.401 13.4067 10.893 13.4067ZM6.09302 7.97457H18.093C18.585 7.97457 18.993 7.60519 18.993 7.15975C18.993 6.71432 18.585 6.34494 18.093 6.34494H6.09302C5.60102 6.34494 5.19302 6.71432 5.19302 7.15975C5.19302 7.60519 5.60102 7.97457 6.09302 7.97457Z" fill="#292D32"/>
</svg>
