<svg width="24" height="23" viewBox="0 0 24 23" fill="none" xmlns="http://www.w3.org/2000/svg">
<path d="M6 0.641235H18C21.312 0.641235 24 3.06395 24 6.05161V12.5484V13.6348C24 16.6225 21.312 19.0452 18 19.0452H16.2C15.876 19.0452 15.444 19.2407 15.24 19.4798L13.44 21.6417C12.648 22.5978 11.352 22.5978 10.56 21.6417L8.76 19.4798C8.532 19.2081 8.172 19.0452 7.8 19.0452H6C2.688 19.0452 0 16.6225 0 13.6348V6.05161C0 3.06395 2.688 0.641235 6 0.641235ZM10.8 13.4067H18C18.492 13.4067 18.9 13.0373 18.9 12.5919C18.9 12.1464 18.492 11.777 18 11.777H10.8C10.308 11.777 9.9 12.1464 9.9 12.5919C9.9 13.0373 10.308 13.4067 10.8 13.4067ZM6 7.97457H18C18.492 7.97457 18.9 7.60519 18.9 7.15975C18.9 6.71432 18.492 6.34494 18 6.34494H6C5.508 6.34494 5.1 6.71432 5.1 7.15975C5.1 7.60519 5.508 7.97457 6 7.97457Z" fill="#292D32"/>
</svg>
