<svg width="70" height="70" viewBox="0 0 70 70" fill="none" xmlns="http://www.w3.org/2000/svg">
<rect x="70" width="70" height="70" rx="35" transform="rotate(90 70 0)" fill="white" fill-opacity="0.2"/>
<path d="M25.4499 15.8805C24.9267 16.4444 24.6328 17.2091 24.6328 18.0065C24.6328 18.8039 24.9267 19.5687 25.4499 20.1326L39.2639 35.0182L25.4499 49.9037C24.9416 50.4709 24.6603 51.2305 24.6666 52.019C24.673 52.8074 24.9665 53.5617 25.4839 54.1192C26.0013 54.6768 26.7013 54.993 27.433 54.9999C28.1647 55.0067 28.8696 54.7036 29.396 54.1558L45.1829 37.1442C45.7061 36.5803 46 35.8156 46 35.0182C46 34.2208 45.7061 33.456 45.1829 32.8921L29.396 15.8805C28.8726 15.3167 28.1629 15 27.4229 15C26.6829 15 25.9732 15.3167 25.4499 15.8805Z" fill="#181A1B" fill-opacity="0.5"/>
</svg>
