<svg width="70" height="50" viewBox="0 0 70 50" fill="none" xmlns="http://www.w3.org/2000/svg">
<path d="M45 23.5V25C45 29.714 45 32.071 43.535 33.535C42.072 35 39.714 35 35 35C30.286 35 27.929 35 26.464 33.535C25 32.072 25 29.714 25 25C25 23.872 25 22.878 25.02 22M36.5 15H35C30.286 15 27.929 15 26.464 16.464C26.024 16.905 25.715 17.427 25.5 18.07" stroke="#181A1B" stroke-width="1.5" stroke-linecap="round"/>
<path d="M30 27L31.797 24.844C32.509 23.989 32.865 23.562 33.333 23.562C33.802 23.562 34.158 23.989 34.87 24.844L35.13 25.156C35.842 26.011 36.198 26.438 36.667 26.438C37.135 26.438 37.491 26.011 38.203 25.156L40 23" stroke="#181A1B" stroke-width="1.5" stroke-linecap="round"/>
<path d="M42 21C43.6569 21 45 19.6569 45 18C45 16.3431 43.6569 15 42 15C40.3431 15 39 16.3431 39 18C39 19.6569 40.3431 21 42 21Z" stroke="#181A1B" stroke-width="1.5"/>
</svg>
