<svg width="70" height="50" viewBox="0 0 70 50" fill="none" xmlns="http://www.w3.org/2000/svg">
<path d="M35 37C39.971 37 44 34 44 28.75C44 26.5 43.25 22.75 40.25 19.75C40.625 22 38.375 22.75 38.375 22.75C39.5 19 36.5 13.75 32 13C32.5355 16 32.75 19 29 22C27.125 23.5 26 26.0935 26 28.75C26 34 30.029 37 35 37ZM35 35.5C32.5145 35.5 30.5 34 30.5 31.375C30.5 30.25 30.875 28.375 32.375 26.875C32.1875 28 33.5 28.75 33.5 28.75C32.9375 26.875 34.25 23.875 36.5 23.5C36.2315 25 36.125 26.5 38 28C38.9375 28.75 39.5 30.046 39.5 31.375C39.5 34 37.4855 35.5 35 35.5Z" fill="#181A1B"/>
</svg>
