<svg width="70" height="50" viewBox="0 0 70 50" fill="none" xmlns="http://www.w3.org/2000/svg">
<path d="M40.976 15.602C41.439 15.342 41.742 15.174 41.983 15.078C42.209 14.988 42.308 14.993 42.376 15.01C42.442 15.028 42.529 15.07 42.677 15.257C42.836 15.456 43.011 15.747 43.278 16.197L44.382 18.053C44.65 18.503 44.822 18.795 44.921 19.027C45.013 19.245 45.006 19.335 44.991 19.393C44.974 19.452 44.933 19.535 44.738 19.68C44.533 19.834 44.232 20.004 43.768 20.264L39.836 22.466C39.398 22.712 39.114 22.87 38.889 22.959C38.679 23.043 38.593 23.036 38.539 23.021C38.484 23.007 38.406 22.971 38.266 22.794C38.116 22.606 37.951 22.329 37.696 21.9L36.516 19.919C36.254 19.478 36.086 19.192 35.989 18.966C35.899 18.753 35.906 18.666 35.921 18.612C35.935 18.558 35.973 18.479 36.159 18.34C36.357 18.19 36.648 18.027 37.099 17.774L40.976 15.602ZM31.638 21.45L35.088 19.519C35.214 19.782 35.391 20.079 35.591 20.415L36.805 22.455C36.988 22.763 37.152 23.038 37.309 23.263L35.762 24.129L39.938 33.919C39.9779 34.0135 39.9987 34.1149 39.9992 34.2175C39.9997 34.3201 39.9798 34.4218 39.9407 34.5166C39.9017 34.6115 39.8442 34.6976 39.7716 34.7701C39.6991 34.8426 39.6128 34.9 39.518 34.939C39.3254 35.0199 39.1087 35.0216 38.9149 34.9437C38.7212 34.8658 38.5659 34.7147 38.483 34.523L35 26.358L31.517 34.523C31.434 34.7144 31.2789 34.8654 31.0854 34.9433C30.8918 35.0211 30.6754 35.0196 30.483 34.939C30.3881 34.9 30.3018 34.8426 30.2293 34.7701C30.1567 34.6976 30.0992 34.6115 30.0602 34.5166C30.0211 34.4218 30.0012 34.3201 30.0017 34.2175C30.0022 34.1149 30.023 34.0135 30.063 33.919L33.759 25.251C33.357 25.476 33.09 25.623 32.877 25.708C32.666 25.792 32.58 25.785 32.526 25.771C32.471 25.756 32.393 25.72 32.253 25.543C32.104 25.355 31.938 25.078 31.683 24.649L31.056 23.595C30.793 23.155 30.625 22.869 30.528 22.642C30.438 22.429 30.445 22.343 30.46 22.289C30.475 22.234 30.512 22.156 30.698 22.016C30.896 21.867 31.188 21.703 31.638 21.451V21.45Z" fill="#181A1B"/>
<path d="M29.6269 23.196L26.2319 25.098C25.7679 25.358 25.4669 25.528 25.2619 25.681C25.0669 25.827 25.0259 25.91 25.0099 25.968C24.9939 26.026 24.9869 26.116 25.0789 26.334C25.1769 26.566 25.3499 26.859 25.6179 27.309C25.8859 27.759 26.0599 28.05 26.2179 28.249C26.3669 28.436 26.4539 28.479 26.5199 28.496C26.5879 28.514 26.6869 28.518 26.9139 28.428C27.1539 28.332 27.4569 28.164 27.9199 27.904L31.2969 26.012C31.1389 25.788 30.9759 25.512 30.7919 25.205L30.1299 24.092C29.9299 23.756 29.7539 23.459 29.6269 23.196Z" fill="#181A1B"/>
</svg>
