<svg width="70" height="55" viewBox="0 0 70 55" fill="none" xmlns="http://www.w3.org/2000/svg">
<rect width="70" height="55" fill="#F8F8F8"/>
<path d="M44 27C44 27.1989 43.921 27.3897 43.7803 27.5303C43.6397 27.671 43.4489 27.75 43.25 27.75H26.75C26.5511 27.75 26.3603 27.671 26.2197 27.5303C26.079 27.3897 26 27.1989 26 27C26 26.8011 26.079 26.6103 26.2197 26.4697C26.3603 26.329 26.5511 26.25 26.75 26.25H43.25C43.4489 26.25 43.6397 26.329 43.7803 26.4697C43.921 26.6103 44 26.8011 44 27ZM26.75 21.75H43.25C43.4489 21.75 43.6397 21.671 43.7803 21.5303C43.921 21.3897 44 21.1989 44 21C44 20.8011 43.921 20.6103 43.7803 20.4697C43.6397 20.329 43.4489 20.25 43.25 20.25H26.75C26.5511 20.25 26.3603 20.329 26.2197 20.4697C26.079 20.6103 26 20.8011 26 21C26 21.1989 26.079 21.3897 26.2197 21.5303C26.3603 21.671 26.5511 21.75 26.75 21.75ZM43.25 32.25H26.75C26.5511 32.25 26.3603 32.329 26.2197 32.4697C26.079 32.6103 26 32.8011 26 33C26 33.1989 26.079 33.3897 26.2197 33.5303C26.3603 33.671 26.5511 33.75 26.75 33.75H43.25C43.4489 33.75 43.6397 33.671 43.7803 33.5303C43.921 33.3897 44 33.1989 44 33C44 32.8011 43.921 32.6103 43.7803 32.4697C43.6397 32.329 43.4489 32.25 43.25 32.25Z" fill="#181A1B"/>
</svg>
