<svg width="93" height="131" viewBox="0 0 93 131" fill="none" xmlns="http://www.w3.org/2000/svg">
<path d="M48.3633 63.356H45.6133L45.5952 55.3926L42.652 62.1315H40.6194L37.6761 55.3926V63.356H34.8899V51.0882H38.3066L41.6363 58.3856L44.9648 51.0882H48.3633V63.356Z" fill="#FF00FF"/>
<path d="M56.6513 51.0002C58.5546 51.0002 60.1371 51.5925 61.3989 52.7772C62.6603 53.9612 63.2914 55.4396 63.2914 57.213C63.2914 58.9985 62.6576 60.492 61.3904 61.6935C60.1229 62.8951 58.5432 63.4959 56.6513 63.4959C54.7591 63.4959 53.1821 62.8981 51.9206 61.702C50.6588 60.5062 50.0281 59.0099 50.0281 57.213C50.0281 55.4276 50.6588 53.9458 51.9206 52.7675C53.1821 51.5895 54.7591 51.0002 56.6513 51.0002ZM56.6863 53.6084C55.728 53.6084 54.91 53.9555 54.2322 54.6495C53.5549 55.3437 53.2165 56.2042 53.2165 57.2311C53.2165 58.2575 53.5583 59.1236 54.2418 59.8297C54.9254 60.536 55.74 60.8889 56.6863 60.8889C57.6322 60.8889 58.4351 60.536 59.0945 59.8297C59.7545 59.1236 60.0848 58.2575 60.0848 57.2311C60.0848 56.2042 59.7545 55.3437 59.0945 54.6495C58.4351 53.9555 57.6322 53.6084 56.6863 53.6084Z" fill="#FF00FF"/>
<path d="M70.7553 51.0002C72.6587 51.0002 74.2411 51.5925 75.5029 52.7772C76.7643 53.9612 77.3954 55.4396 77.3954 57.213C77.3954 58.9985 76.7616 60.492 75.4944 61.6935C74.2269 62.8951 72.6472 63.4959 70.7553 63.4959C68.8631 63.4959 67.2861 62.8981 66.0246 61.702C64.7628 60.5062 64.1321 59.0099 64.1321 57.213C64.1321 55.4276 64.7628 53.9458 66.0246 52.7675C67.2861 51.5895 68.8631 51.0002 70.7553 51.0002ZM70.7903 53.6084C69.832 53.6084 69.014 53.9555 68.3362 54.6495C67.659 55.3437 67.3205 56.2042 67.3205 57.2311C67.3205 58.2575 67.6623 59.1236 68.3458 59.8297C69.0294 60.536 69.844 60.8889 70.7903 60.8889C71.7362 60.8889 72.5391 60.536 73.1985 59.8297C73.8585 59.1236 74.1888 58.2575 74.1888 57.2311C74.1888 56.2042 73.8585 55.3437 73.1985 54.6495C72.5391 53.9555 71.7362 53.6084 70.7903 53.6084Z" fill="#FF00FF"/>
<path d="M79.0417 51.1051H84.3159C86.2434 51.1051 87.8114 51.6709 89.02 52.8025C90.2292 53.9341 90.834 55.4104 90.834 57.2311C90.834 59.0392 90.2205 60.5122 88.9934 61.6501C87.767 62.7874 86.1674 63.3559 84.1939 63.3559H79.0417V51.1051ZM82.1613 53.5903V60.8708H84.386C85.344 60.8708 86.1293 60.5354 86.7422 59.8647C87.3558 59.1939 87.6625 58.3217 87.6625 57.248C87.6625 56.1743 87.3413 55.2967 86.6988 54.6145C86.0562 53.9317 85.2386 53.5903 84.2459 53.5903H82.1613Z" fill="#FF00FF"/>
<path d="M47.7266 62.4128H44.9766L44.9585 54.4494L42.0153 61.1883H39.9826L37.0394 54.4494V62.4128H34.2532V50.1451H37.6698L40.9996 57.4425L44.3281 50.1451H47.7266V62.4128Z" fill="#00FFFF"/>
<path d="M56.0143 50.057C57.9177 50.057 59.5001 50.6493 60.7619 51.834C62.0234 53.018 62.6544 54.4965 62.6544 56.2699C62.6544 58.0553 62.0206 59.5488 60.7534 60.7504C59.4859 61.9519 57.9062 62.5527 56.0143 62.5527C54.1221 62.5527 52.5451 61.9549 51.2836 60.7588C50.0219 59.563 49.3911 58.0668 49.3911 56.2699C49.3911 54.4844 50.0219 53.0027 51.2836 51.8243C52.5451 50.6463 54.1221 50.057 56.0143 50.057ZM56.0493 52.6652C55.091 52.6652 54.2731 53.0123 53.5952 53.7063C52.918 54.4006 52.5795 55.261 52.5795 56.288C52.5795 57.3143 52.9213 58.1805 53.6049 58.8865C54.2885 59.5928 55.1031 59.9457 56.0493 59.9457C56.9953 59.9457 57.7981 59.5928 58.4575 58.8865C59.1176 58.1805 59.4479 57.3143 59.4479 56.288C59.4479 55.261 59.1176 54.4006 58.4575 53.7063C57.7981 53.0123 56.9953 52.6652 56.0493 52.6652Z" fill="#00FFFF"/>
<path d="M70.1183 50.057C72.0217 50.057 73.6041 50.6493 74.8659 51.834C76.1274 53.018 76.7584 54.4965 76.7584 56.2699C76.7584 58.0553 76.1246 59.5488 74.8574 60.7504C73.5899 61.9519 72.0102 62.5527 70.1183 62.5527C68.2261 62.5527 66.6491 61.9549 65.3876 60.7588C64.1259 59.563 63.4951 58.0668 63.4951 56.2699C63.4951 54.4844 64.1259 53.0027 65.3876 51.8243C66.6491 50.6463 68.2261 50.057 70.1183 50.057ZM70.1533 52.6652C69.195 52.6652 68.3771 53.0123 67.6992 53.7063C67.022 54.4006 66.6835 55.261 66.6835 56.288C66.6835 57.3143 67.0253 58.1805 67.7089 58.8865C68.3925 59.5928 69.2071 59.9457 70.1533 59.9457C71.0993 59.9457 71.9021 59.5928 72.5615 58.8865C73.2216 58.1805 73.5519 57.3143 73.5519 56.288C73.5519 55.261 73.2216 54.4006 72.5615 53.7063C71.9021 53.0123 71.0993 52.6652 70.1533 52.6652Z" fill="#00FFFF"/>
<path d="M78.4048 50.1619H83.6789C85.6065 50.1619 87.1744 50.7277 88.383 51.8593C89.5923 52.9909 90.1971 54.4672 90.1971 56.2879C90.1971 58.096 89.5835 59.569 88.3565 60.7069C87.13 61.8443 85.5304 62.4128 83.557 62.4128H78.4048V50.1619ZM81.5244 52.6471V59.9276H83.749C84.707 59.9276 85.4923 59.5922 86.1053 58.9215C86.7188 58.2507 87.0256 57.3785 87.0256 56.3048C87.0256 55.2312 86.7043 54.3535 86.0618 53.6713C85.4193 52.9885 84.6016 52.6471 83.6089 52.6471H81.5244Z" fill="#00FFFF"/>
<path d="M48.045 62.8844H45.295L45.2768 54.921L42.3336 61.6599H40.301L37.3578 54.921V62.8844H34.5715V50.6166H37.9882L41.3179 57.9141L44.6464 50.6166H48.045V62.8844Z" fill="#353740"/>
<path d="M56.3329 50.5286C58.2363 50.5286 59.8187 51.1209 61.0805 52.3056C62.342 53.4896 62.973 54.9681 62.973 56.7414C62.973 58.5269 62.3392 60.0204 61.072 61.222C59.8045 62.4235 58.2248 63.0243 56.3329 63.0243C54.4407 63.0243 52.8637 62.4265 51.6022 61.2304C50.3405 60.0346 49.7097 58.5384 49.7097 56.7414C49.7097 54.956 50.3405 53.4743 51.6022 52.2959C52.8637 51.1179 54.4407 50.5286 56.3329 50.5286ZM56.3679 53.1368C55.4096 53.1368 54.5917 53.4839 53.9138 54.1779C53.2366 54.8722 52.8981 55.7326 52.8981 56.7595C52.8981 57.7859 53.2399 58.6521 53.9235 59.3581C54.6071 60.0644 55.4217 60.4173 56.3679 60.4173C57.3139 60.4173 58.1167 60.0644 58.7761 59.3581C59.4362 58.6521 59.7665 57.7859 59.7665 56.7595C59.7665 55.7326 59.4362 54.8722 58.7761 54.1779C58.1167 53.4839 57.3139 53.1368 56.3679 53.1368Z" fill="#353740"/>
<path d="M70.4369 50.5286C72.3403 50.5286 73.9227 51.1209 75.1845 52.3056C76.446 53.4896 77.077 54.9681 77.077 56.7414C77.077 58.5269 76.4433 60.0204 75.176 61.222C73.9085 62.4235 72.3288 63.0243 70.4369 63.0243C68.5447 63.0243 66.9677 62.4265 65.7062 61.2304C64.4445 60.0346 63.8137 58.5384 63.8137 56.7414C63.8137 54.956 64.4445 53.4743 65.7062 52.2959C66.9677 51.1179 68.5447 50.5286 70.4369 50.5286ZM70.4719 53.1368C69.5136 53.1368 68.6957 53.4839 68.0178 54.1779C67.3406 54.8722 67.0021 55.7326 67.0021 56.7595C67.0021 57.7859 67.3439 58.6521 68.0275 59.3581C68.7111 60.0644 69.5257 60.4173 70.4719 60.4173C71.4179 60.4173 72.2207 60.0644 72.8801 59.3581C73.5402 58.6521 73.8705 57.7859 73.8705 56.7595C73.8705 55.7326 73.5402 54.8722 72.8801 54.1779C72.2207 53.4839 71.4179 53.1368 70.4719 53.1368Z" fill="#353740"/>
<path d="M78.7231 50.6335H83.9973C85.9248 50.6335 87.4928 51.1993 88.7014 52.3309C89.9106 53.4625 90.5154 54.9388 90.5154 56.7595C90.5154 58.5676 89.9019 60.0406 88.6748 61.1785C87.4484 62.3158 85.8487 62.8843 83.8753 62.8843H78.7231V50.6335ZM81.8427 53.1187V60.3992H84.0673C85.0254 60.3992 85.8107 60.0638 86.4236 59.3931C87.0372 58.7223 87.3439 57.8501 87.3439 56.7764C87.3439 55.7027 87.0227 54.8251 86.3801 54.1429C85.7376 53.4601 84.92 53.1187 83.9273 53.1187H81.8427Z" fill="#353740"/>
<path d="M34.8899 70.462H40.2341C41.7993 70.462 43.0137 70.8323 43.8778 71.5731C44.7426 72.3138 45.1749 73.3669 45.1749 74.7326C45.1749 76.1676 44.7426 77.2817 43.8778 78.0755C43.0137 78.8687 41.7993 79.265 40.2341 79.265H38.0095V82.7128H34.8899V70.462ZM38.0095 72.9121V76.8148H40.0771C40.7655 76.8148 41.2963 76.6459 41.6701 76.3081C42.0445 75.9697 42.2317 75.4793 42.2317 74.8375C42.2317 74.2072 42.0445 73.7286 41.6701 73.4019C41.2963 73.0756 40.7655 72.9121 40.0771 72.9121H38.0095Z" fill="#FF00FF"/>
<path d="M49.9235 82.7128H46.804V70.462H49.9235V82.7128Z" fill="#FF00FF"/>
<path d="M59.489 76.3069L63.8876 82.7128H60.1557L57.5095 78.8102L54.8634 82.7128H51.2378L55.617 76.4468L51.518 70.462H55.1448L57.5095 74.0329L59.8743 70.462H63.5361L59.489 76.3069Z" fill="#FF00FF"/>
<path d="M34.2532 69.5188H39.5974C41.1626 69.5188 42.377 69.8892 43.2411 70.6299C44.1058 71.3706 44.5382 72.4238 44.5382 73.7894C44.5382 75.2244 44.1058 76.3385 43.2411 77.1323C42.377 77.9255 41.1626 78.3218 39.5974 78.3218H37.3727V81.7696H34.2532V69.5188ZM37.3727 71.969V75.8716H39.4404C40.1288 75.8716 40.6596 75.7027 41.0334 75.3649C41.4078 75.0265 41.595 74.5362 41.595 73.8944C41.595 73.264 41.4078 72.7854 41.0334 72.4588C40.6596 72.1324 40.1288 71.969 39.4404 71.969H37.3727Z" fill="#00FFFF"/>
<path d="M49.2866 81.7696H46.167V69.5188H49.2866V81.7696Z" fill="#00FFFF"/>
<path d="M58.852 75.3637L63.2506 81.7696H59.5187L56.8726 77.867L54.2264 81.7696H50.6008L54.9801 75.5037L50.881 69.5188H54.5078L56.8726 73.0897L59.2373 69.5188H62.8991L58.852 75.3637Z" fill="#00FFFF"/>
<path d="M34.5715 69.9904H39.9157C41.481 69.9904 42.6953 70.3608 43.5595 71.1015C44.4242 71.8422 44.8566 72.8954 44.8566 74.261C44.8566 75.696 44.4242 76.8101 43.5595 77.6039C42.6953 78.3971 41.481 78.7934 39.9157 78.7934H37.6911V82.2413H34.5715V69.9904ZM37.6911 72.4406V76.3432H39.7587C40.4471 76.3432 40.9779 76.1743 41.3517 75.8366C41.7261 75.4982 41.9133 75.0078 41.9133 74.366C41.9133 73.7356 41.7261 73.257 41.3517 72.9304C40.9779 72.604 40.4471 72.4406 39.7587 72.4406H37.6911Z" fill="#353740"/>
<path d="M49.6049 82.2413H46.4854V69.9904H49.6049V82.2413Z" fill="#353740"/>
<path d="M59.1706 75.8354L63.5692 82.2413H59.8373L57.1912 78.3386L54.545 82.2413H50.9194L55.2987 75.9753L51.1996 69.9904H54.8264L57.1912 73.5613L59.5559 69.9904H63.2177L59.1706 75.8354Z" fill="#353740"/>
</svg>
