<svg width="93" height="131" viewBox="0 0 93 131" fill="none" xmlns="http://www.w3.org/2000/svg">
<path d="M48.3633 63.356H45.6133L45.5952 55.3926L42.652 62.1315H40.6194L37.6761 55.3926V63.356H34.8899V51.0882H38.3066L41.6363 58.3856L44.9648 51.0882H48.3633V63.356Z" fill="#FF00FF"/>
<path d="M56.6512 51.0002C58.5546 51.0002 60.137 51.5925 61.3988 52.7772C62.6603 53.9612 63.2913 55.4396 63.2913 57.213C63.2913 58.9985 62.6575 60.492 61.3903 61.6935C60.1228 62.8951 58.5431 63.4959 56.6512 63.4959C54.759 63.4959 53.182 62.8981 51.9205 61.702C50.6588 60.5062 50.028 59.0099 50.028 57.213C50.028 55.4276 50.6588 53.9458 51.9205 52.7675C53.182 51.5895 54.759 51.0002 56.6512 51.0002ZM56.6862 53.6084C55.7279 53.6084 54.91 53.9555 54.2321 54.6495C53.5549 55.3437 53.2164 56.2042 53.2164 57.2311C53.2164 58.2575 53.5582 59.1236 54.2418 59.8297C54.9254 60.536 55.74 60.8889 56.6862 60.8889C57.6322 60.8889 58.435 60.536 59.0944 59.8297C59.7545 59.1236 60.0848 58.2575 60.0848 57.2311C60.0848 56.2042 59.7545 55.3437 59.0944 54.6495C58.435 53.9555 57.6322 53.6084 56.6862 53.6084Z" fill="#FF00FF"/>
<path d="M70.7553 51.0002C72.6587 51.0002 74.2411 51.5925 75.5029 52.7772C76.7643 53.9612 77.3954 55.4396 77.3954 57.213C77.3954 58.9985 76.7616 60.492 75.4944 61.6935C74.2269 62.8951 72.6472 63.4959 70.7553 63.4959C68.8631 63.4959 67.2861 62.8981 66.0246 61.702C64.7628 60.5062 64.1321 59.0099 64.1321 57.213C64.1321 55.4276 64.7628 53.9458 66.0246 52.7675C67.2861 51.5895 68.8631 51.0002 70.7553 51.0002ZM70.7903 53.6084C69.832 53.6084 69.014 53.9555 68.3362 54.6495C67.659 55.3437 67.3205 56.2042 67.3205 57.2311C67.3205 58.2575 67.6623 59.1236 68.3458 59.8297C69.0294 60.536 69.844 60.8889 70.7903 60.8889C71.7362 60.8889 72.5391 60.536 73.1985 59.8297C73.8585 59.1236 74.1888 58.2575 74.1888 57.2311C74.1888 56.2042 73.8585 55.3437 73.1985 54.6495C72.5391 53.9555 71.7362 53.6084 70.7903 53.6084Z" fill="#FF00FF"/>
<path d="M79.0416 51.1051H84.3158C86.2433 51.1051 87.8113 51.6709 89.0199 52.8025C90.2291 53.9341 90.8339 55.4104 90.8339 57.2311C90.8339 59.0392 90.2204 60.5122 88.9933 61.6501C87.7669 62.7874 86.1672 63.3559 84.1938 63.3559H79.0416V51.1051ZM82.1612 53.5903V60.8708H84.3858C85.3439 60.8708 86.1292 60.5354 86.7421 59.8647C87.3556 59.1939 87.6624 58.3217 87.6624 57.248C87.6624 56.1743 87.3411 55.2967 86.6986 54.6145C86.0561 53.9317 85.2385 53.5903 84.2457 53.5903H82.1612Z" fill="#FF00FF"/>
<path d="M47.7264 62.4128H44.9764L44.9583 54.4494L42.0151 61.1883H39.9825L37.0392 54.4494V62.4128H34.253V50.1451H37.6697L40.9994 57.4425L44.3279 50.1451H47.7264V62.4128Z" fill="#00FFFF"/>
<path d="M56.0143 50.057C57.9177 50.057 59.5001 50.6493 60.7619 51.834C62.0234 53.018 62.6544 54.4965 62.6544 56.2699C62.6544 58.0553 62.0206 59.5488 60.7534 60.7504C59.4859 61.9519 57.9062 62.5527 56.0143 62.5527C54.1221 62.5527 52.5451 61.9549 51.2836 60.7588C50.0219 59.563 49.3911 58.0668 49.3911 56.2699C49.3911 54.4844 50.0219 53.0027 51.2836 51.8243C52.5451 50.6463 54.1221 50.057 56.0143 50.057ZM56.0493 52.6652C55.091 52.6652 54.2731 53.0123 53.5952 53.7063C52.918 54.4006 52.5795 55.261 52.5795 56.288C52.5795 57.3143 52.9213 58.1805 53.6049 58.8865C54.2885 59.5928 55.1031 59.9457 56.0493 59.9457C56.9953 59.9457 57.7981 59.5928 58.4575 58.8865C59.1176 58.1805 59.4479 57.3143 59.4479 56.288C59.4479 55.261 59.1176 54.4006 58.4575 53.7063C57.7981 53.0123 56.9953 52.6652 56.0493 52.6652Z" fill="#00FFFF"/>
<path d="M70.1183 50.057C72.0217 50.057 73.6041 50.6493 74.8659 51.834C76.1274 53.018 76.7584 54.4965 76.7584 56.2699C76.7584 58.0553 76.1246 59.5488 74.8574 60.7504C73.5899 61.9519 72.0102 62.5527 70.1183 62.5527C68.2261 62.5527 66.6491 61.9549 65.3876 60.7588C64.1259 59.563 63.4951 58.0668 63.4951 56.2699C63.4951 54.4844 64.1259 53.0027 65.3876 51.8243C66.6491 50.6463 68.2261 50.057 70.1183 50.057ZM70.1533 52.6652C69.195 52.6652 68.3771 53.0123 67.6992 53.7063C67.022 54.4006 66.6835 55.261 66.6835 56.288C66.6835 57.3143 67.0253 58.1805 67.7089 58.8865C68.3925 59.5928 69.2071 59.9457 70.1533 59.9457C71.0993 59.9457 71.9021 59.5928 72.5615 58.8865C73.2216 58.1805 73.5519 57.3143 73.5519 56.288C73.5519 55.261 73.2216 54.4006 72.5615 53.7063C71.9021 53.0123 71.0993 52.6652 70.1533 52.6652Z" fill="#00FFFF"/>
<path d="M78.4048 50.1619H83.6789C85.6065 50.1619 87.1744 50.7277 88.383 51.8593C89.5923 52.9909 90.1971 54.4672 90.1971 56.2879C90.1971 58.096 89.5835 59.569 88.3565 60.7069C87.13 61.8443 85.5304 62.4128 83.557 62.4128H78.4048V50.1619ZM81.5244 52.6471V59.9276H83.749C84.707 59.9276 85.4923 59.5922 86.1053 58.9215C86.7188 58.2507 87.0256 57.3785 87.0256 56.3048C87.0256 55.2312 86.7043 54.3535 86.0618 53.6713C85.4193 52.9885 84.6016 52.6471 83.6089 52.6471H81.5244Z" fill="#00FFFF"/>
<path d="M48.0448 62.8844H45.2948L45.2767 54.921L42.3335 61.6599H40.3009L37.3576 54.921V62.8844H34.5714V50.6166H37.9881L41.3178 57.9141L44.6463 50.6166H48.0448V62.8844Z" fill="#353740"/>
<path d="M56.3328 50.5286C58.2362 50.5286 59.8186 51.1209 61.0804 52.3056C62.3418 53.4896 62.9729 54.9681 62.9729 56.7414C62.9729 58.5269 62.3391 60.0204 61.0719 61.222C59.8044 62.4235 58.2247 63.0243 56.3328 63.0243C54.4406 63.0243 52.8636 62.4265 51.6021 61.2304C50.3403 60.0346 49.7096 58.5384 49.7096 56.7414C49.7096 54.956 50.3403 53.4743 51.6021 52.2959C52.8636 51.1179 54.4406 50.5286 56.3328 50.5286ZM56.3678 53.1368C55.4095 53.1368 54.5915 53.4839 53.9137 54.1779C53.2365 54.8722 52.898 55.7326 52.898 56.7595C52.898 57.7859 53.2398 58.6521 53.9234 59.3581C54.6069 60.0644 55.4216 60.4173 56.3678 60.4173C57.3138 60.4173 58.1166 60.0644 58.776 59.3581C59.436 58.6521 59.7664 57.7859 59.7664 56.7595C59.7664 55.7326 59.436 54.8722 58.776 54.1779C58.1166 53.4839 57.3138 53.1368 56.3678 53.1368Z" fill="#353740"/>
<path d="M70.4368 50.5286C72.3402 50.5286 73.9226 51.1209 75.1844 52.3056C76.4458 53.4896 77.0769 54.9681 77.0769 56.7414C77.0769 58.5269 76.4431 60.0204 75.1759 61.222C73.9084 62.4235 72.3287 63.0243 70.4368 63.0243C68.5446 63.0243 66.9676 62.4265 65.7061 61.2304C64.4443 60.0346 63.8136 58.5384 63.8136 56.7414C63.8136 54.956 64.4443 53.4743 65.7061 52.2959C66.9676 51.1179 68.5446 50.5286 70.4368 50.5286ZM70.4718 53.1368C69.5135 53.1368 68.6955 53.4839 68.0177 54.1779C67.3405 54.8722 67.002 55.7326 67.002 56.7595C67.002 57.7859 67.3438 58.6521 68.0274 59.3581C68.7109 60.0644 69.5256 60.4173 70.4718 60.4173C71.4178 60.4173 72.2206 60.0644 72.88 59.3581C73.54 58.6521 73.8704 57.7859 73.8704 56.7595C73.8704 55.7326 73.54 54.8722 72.88 54.1779C72.2206 53.4839 71.4178 53.1368 70.4718 53.1368Z" fill="#353740"/>
<path d="M78.7231 50.6335H83.9973C85.9248 50.6335 87.4928 51.1993 88.7014 52.3309C89.9106 53.4625 90.5154 54.9388 90.5154 56.7595C90.5154 58.5676 89.9019 60.0406 88.6748 61.1785C87.4484 62.3158 85.8487 62.8843 83.8753 62.8843H78.7231V50.6335ZM81.8427 53.1187V60.3992H84.0673C85.0254 60.3992 85.8107 60.0638 86.4236 59.3931C87.0372 58.7223 87.3439 57.8501 87.3439 56.7764C87.3439 55.7027 87.0227 54.8251 86.3801 54.1429C85.7376 53.4601 84.92 53.1187 83.9273 53.1187H81.8427Z" fill="#353740"/>
<path d="M34.8899 70.462H40.2341C41.7993 70.462 43.0137 70.8323 43.8778 71.5731C44.7426 72.3138 45.1749 73.3669 45.1749 74.7326C45.1749 76.1676 44.7426 77.2817 43.8778 78.0755C43.0137 78.8687 41.7993 79.265 40.2341 79.265H38.0095V82.7128H34.8899V70.462ZM38.0095 72.9121V76.8148H40.0771C40.7655 76.8148 41.2963 76.6459 41.6701 76.3081C42.0445 75.9697 42.2317 75.4793 42.2317 74.8375C42.2317 74.2072 42.0445 73.7286 41.6701 73.4019C41.2963 73.0756 40.7655 72.9121 40.0771 72.9121H38.0095Z" fill="#FF00FF"/>
<path d="M49.9234 82.7128H46.8038V70.462H49.9234V82.7128Z" fill="#FF00FF"/>
<path d="M59.4889 76.3069L63.8874 82.7128H60.1555L57.5094 78.8102L54.8633 82.7128H51.2377L55.6169 76.4468L51.5179 70.462H55.1447L57.5094 74.0329L59.8741 70.462H63.536L59.4889 76.3069Z" fill="#FF00FF"/>
<path d="M34.253 69.5188H39.5972C41.1624 69.5188 42.3768 69.8892 43.2409 70.6299C44.1056 71.3706 44.538 72.4238 44.538 73.7894C44.538 75.2244 44.1056 76.3385 43.2409 77.1323C42.3768 77.9255 41.1624 78.3218 39.5972 78.3218H37.3726V81.7696H34.253V69.5188ZM37.3726 71.969V75.8716H39.4402C40.1286 75.8716 40.6594 75.7027 41.0332 75.3649C41.4076 75.0265 41.5948 74.5362 41.5948 73.8944C41.5948 73.264 41.4076 72.7854 41.0332 72.4588C40.6594 72.1324 40.1286 71.969 39.4402 71.969H37.3726Z" fill="#00FFFF"/>
<path d="M49.2865 81.7696H46.1669V69.5188H49.2865V81.7696Z" fill="#00FFFF"/>
<path d="M58.852 75.3637L63.2506 81.7696H59.5187L56.8726 77.867L54.2264 81.7696H50.6008L54.9801 75.5037L50.881 69.5188H54.5078L56.8726 73.0897L59.2373 69.5188H62.8991L58.852 75.3637Z" fill="#00FFFF"/>
<path d="M34.5714 69.9904H39.9156C41.4808 69.9904 42.6952 70.3608 43.5593 71.1015C44.4241 71.8422 44.8564 72.8954 44.8564 74.261C44.8564 75.696 44.4241 76.8101 43.5593 77.6039C42.6952 78.3971 41.4808 78.7934 39.9156 78.7934H37.691V82.2413H34.5714V69.9904ZM37.691 72.4406V76.3432H39.7586C40.447 76.3432 40.9778 76.1743 41.3516 75.8366C41.726 75.4982 41.9132 75.0078 41.9132 74.366C41.9132 73.7356 41.726 73.257 41.3516 72.9304C40.9778 72.604 40.447 72.4406 39.7586 72.4406H37.691Z" fill="#353740"/>
<path d="M49.605 82.2413H46.4854V69.9904H49.605V82.2413Z" fill="#353740"/>
<path d="M59.1705 75.8354L63.569 82.2413H59.8371L57.191 78.3386L54.5449 82.2413H50.9193L55.2985 75.9753L51.1994 69.9904H54.8263L57.191 73.5613L59.5557 69.9904H63.2176L59.1705 75.8354Z" fill="#353740"/>
</svg>
