<svg width="21" height="21" viewBox="0 0 21 21" fill="none" xmlns="http://www.w3.org/2000/svg">
<path d="M0 4.55835C0 3.56379 0.395088 2.60996 1.09835 1.9067C1.80161 1.20344 2.75544 0.80835 3.75 0.80835H17.25C18.2446 0.80835 19.1984 1.20344 19.9016 1.9067C20.6049 2.60996 21 3.56379 21 4.55835V12.0583C21 12.5508 20.903 13.0384 20.7145 13.4934C20.5261 13.9484 20.2499 14.3618 19.9016 14.71C19.5534 15.0582 19.14 15.3344 18.6851 15.5229C18.2301 15.7114 17.7425 15.8083 17.25 15.8083H11.532L6.9375 19.8284C6.72491 20.0142 6.46328 20.1349 6.18391 20.176C5.90454 20.2171 5.61925 20.1768 5.36214 20.0601C5.10504 19.9433 4.88701 19.7549 4.73412 19.5175C4.58123 19.2801 4.49995 19.0037 4.5 18.7213V15.8083H3.75C2.75544 15.8083 1.80161 15.4133 1.09835 14.71C0.395088 14.0067 0 13.0529 0 12.0583V4.55835ZM3.75 2.30835C3.15326 2.30835 2.58097 2.5454 2.15901 2.96736C1.73705 3.38932 1.5 3.96161 1.5 4.55835V12.0583C1.5 12.6551 1.73705 13.2274 2.15901 13.6493C2.58097 14.0713 3.15326 14.3083 3.75 14.3083H6V18.6553L10.968 14.3083H17.25C17.8467 14.3083 18.419 14.0713 18.841 13.6493C19.2629 13.2274 19.5 12.6551 19.5 12.0583V4.55835C19.5 3.96161 19.2629 3.38932 18.841 2.96736C18.419 2.5454 17.8467 2.30835 17.25 2.30835H3.75Z" fill="white"/>
</svg>
