<svg width="20" height="24" viewBox="0 0 20 24" fill="none" xmlns="http://www.w3.org/2000/svg">
<path d="M16.3407 12.3754C16.3733 15.9004 19.4333 17.0736 19.4671 17.0886C19.4412 17.1711 18.9783 18.7603 17.8551 20.4015C16.8843 21.8205 15.8765 23.2342 14.2893 23.2639C12.7296 23.2924 12.2281 22.3387 10.4448 22.3387C8.66202 22.3387 8.10496 23.2342 6.62839 23.2924C5.09614 23.3505 3.92933 21.7577 2.95039 20.3441C0.950144 17.4521 -0.578543 12.1719 1.47402 8.60775C2.49364 6.83775 4.31614 5.71706 6.29408 5.68819C7.79858 5.6595 9.21871 6.70031 10.1384 6.70031C11.0575 6.70031 12.7833 5.44856 14.5975 5.63231C15.3571 5.664 17.489 5.93906 18.8579 7.94306C18.7478 8.0115 16.3143 9.42825 16.3407 12.3754ZM13.4095 3.71925C14.2229 2.73469 14.7704 1.36369 14.6211 0C13.4485 0.0470625 12.0306 0.781312 11.1897 1.7655C10.436 2.63681 9.77596 4.03181 9.95389 5.3685C11.261 5.46975 12.596 4.70437 13.4095 3.71925Z" fill="black"/>
</svg>
