<svg width="21" height="20" viewBox="0 0 21 20" fill="none" xmlns="http://www.w3.org/2000/svg">
<path d="M-3.05176e-05 4.22505C-3.05176e-05 3.23049 0.395058 2.27666 1.09832 1.5734C1.80158 0.87014 2.75541 0.475052 3.74997 0.475052H17.25C18.2445 0.475052 19.1984 0.87014 19.9016 1.5734C20.6049 2.27666 21 3.23049 21 4.22505V11.7251C21 12.2175 20.903 12.7051 20.7145 13.1601C20.5261 13.6151 20.2498 14.0285 19.9016 14.3767C19.5534 14.7249 19.14 15.0011 18.685 15.1896C18.2301 15.3781 17.7424 15.4751 17.25 15.4751H11.532L6.93747 19.4951C6.72488 19.6809 6.46325 19.8016 6.18388 19.8427C5.90451 19.8838 5.61922 19.8435 5.36211 19.7268C5.10501 19.61 4.88698 19.4217 4.73409 19.1842C4.5812 18.9468 4.49992 18.6704 4.49997 18.3881V15.4751H3.74997C2.75541 15.4751 1.80158 15.08 1.09832 14.3767C0.395058 13.6734 -3.05176e-05 12.7196 -3.05176e-05 11.7251V4.22505ZM3.74997 1.97505C3.15323 1.97505 2.58094 2.2121 2.15898 2.63406C1.73702 3.05602 1.49997 3.62831 1.49997 4.22505V11.7251C1.49997 12.3218 1.73702 12.8941 2.15898 13.316C2.58094 13.738 3.15323 13.9751 3.74997 13.9751H5.99997V18.3221L10.968 13.9751H17.25C17.8467 13.9751 18.419 13.738 18.841 13.316C19.2629 12.8941 19.5 12.3218 19.5 11.7251V4.22505C19.5 3.62831 19.2629 3.05602 18.841 2.63406C18.419 2.2121 17.8467 1.97505 17.25 1.97505H3.74997Z" fill="white"/>
</svg>
