<svg width="22" height="20" viewBox="0 0 22 20" fill="none" xmlns="http://www.w3.org/2000/svg">
<path d="M0.666656 4.2251C0.666656 3.23054 1.06174 2.27671 1.76501 1.57345C2.46827 0.870186 3.42209 0.475098 4.41666 0.475098H17.9167C18.9112 0.475098 19.865 0.870186 20.5683 1.57345C21.2716 2.27671 21.6667 3.23054 21.6667 4.2251V11.7251C21.6667 12.2176 21.5697 12.7052 21.3812 13.1602C21.1927 13.6151 20.9165 14.0285 20.5683 14.3767C20.2201 14.725 19.8067 15.0012 19.3517 15.1896C18.8967 15.3781 18.4091 15.4751 17.9167 15.4751H12.1987L7.60416 19.4951C7.39156 19.6809 7.12994 19.8016 6.85057 19.8427C6.5712 19.8838 6.2859 19.8436 6.0288 19.7268C5.7717 19.61 5.55366 19.4217 5.40077 19.1843C5.24788 18.9469 5.1666 18.6705 5.16666 18.3881V15.4751H4.41666C3.42209 15.4751 2.46827 15.08 1.76501 14.3767C1.06174 13.6735 0.666656 12.7197 0.666656 11.7251V4.2251ZM4.41666 1.9751C3.81992 1.9751 3.24762 2.21215 2.82567 2.63411C2.40371 3.05606 2.16666 3.62836 2.16666 4.2251V11.7251C2.16666 12.3218 2.40371 12.8941 2.82567 13.3161C3.24762 13.738 3.81992 13.9751 4.41666 13.9751H6.66666V18.3221L11.6347 13.9751H17.9167C18.5134 13.9751 19.0857 13.738 19.5076 13.3161C19.9296 12.8941 20.1667 12.3218 20.1667 11.7251V4.2251C20.1667 3.62836 19.9296 3.05606 19.5076 2.63411C19.0857 2.21215 18.5134 1.9751 17.9167 1.9751H4.41666Z" fill="white"/>
</svg>
