<svg width="21" height="20" viewBox="0 0 21 20" fill="none" xmlns="http://www.w3.org/2000/svg">
<path d="M0 3.8916C0 2.89704 0.395088 1.94321 1.09835 1.23995C1.80161 0.53669 2.75544 0.141602 3.75 0.141602H17.25C18.2446 0.141602 19.1984 0.53669 19.9016 1.23995C20.6049 1.94321 21 2.89704 21 3.8916V11.3916C21 11.8841 20.903 12.3717 20.7145 12.8267C20.5261 13.2816 20.2499 13.695 19.9016 14.0433C19.5534 14.3915 19.14 14.6677 18.6851 14.8561C18.2301 15.0446 17.7425 15.1416 17.25 15.1416H11.532L6.9375 19.1616C6.72491 19.3475 6.46328 19.4681 6.18391 19.5092C5.90454 19.5503 5.61925 19.5101 5.36214 19.3933C5.10504 19.2765 4.88701 19.0882 4.73412 18.8508C4.58123 18.6134 4.49995 18.337 4.5 18.0546V15.1416H3.75C2.75544 15.1416 1.80161 14.7465 1.09835 14.0433C0.395088 13.34 0 12.3862 0 11.3916V3.8916ZM3.75 1.6416C3.15326 1.6416 2.58097 1.87865 2.15901 2.30061C1.73705 2.72257 1.5 3.29486 1.5 3.8916V11.3916C1.5 11.9883 1.73705 12.5606 2.15901 12.9826C2.58097 13.4045 3.15326 13.6416 3.75 13.6416H6V17.9886L10.968 13.6416H17.25C17.8467 13.6416 18.419 13.4045 18.841 12.9826C19.2629 12.5606 19.5 11.9883 19.5 11.3916V3.8916C19.5 3.29486 19.2629 2.72257 18.841 2.30061C18.419 1.87865 17.8467 1.6416 17.25 1.6416H3.75Z" fill="white"/>
</svg>
