<svg width="24" height="25" viewBox="0 0 24 25" fill="none" xmlns="http://www.w3.org/2000/svg">
<path d="M22 12.6667H23M12 2.66669V1.66669M12 23.6667V22.6667M20 20.6667L19 19.6667M20 4.66669L19 5.66669M3.99997 20.6667L4.99997 19.6667M3.99997 4.66669L4.99997 5.66669M0.999969 12.6667H1.99997M9.95197 10.2897L11.511 6.98469C11.553 6.89005 11.6215 6.80964 11.7083 6.7532C11.7951 6.69676 11.8964 6.66672 12 6.66672C12.1035 6.66672 12.2048 6.69676 12.2916 6.7532C12.3784 6.80964 12.447 6.89005 12.489 6.98469L14.048 10.2897L17.533 10.8227C17.98 10.8907 18.158 11.4667 17.835 11.7967L15.313 14.3667L15.908 17.9977C15.985 18.4647 15.517 18.8197 15.117 18.5997L12 16.8847L8.88297 18.5997C8.48297 18.8197 8.01497 18.4647 8.09197 17.9977L8.68697 14.3677L6.16497 11.7967C5.84197 11.4667 6.01997 10.8907 6.46697 10.8227L9.95197 10.2897Z" stroke="white" stroke-width="1.5" stroke-linecap="round" stroke-linejoin="round"/>
</svg>
