<svg width="24" height="25" viewBox="0 0 24 25" fill="none" xmlns="http://www.w3.org/2000/svg">
<path d="M22 12.3333H23M12 2.33325V1.33325M12 23.3333V22.3333M20 20.3333L19 19.3333M20 4.33325L19 5.33325M4 20.3333L5 19.3333M4 4.33325L5 5.33325M1 12.3333H2M9.952 9.95625L11.511 6.65125C11.553 6.55662 11.6216 6.47621 11.7084 6.41977C11.7952 6.36333 11.8965 6.33329 12 6.33329C12.1035 6.33329 12.2048 6.36333 12.2916 6.41977C12.3784 6.47621 12.447 6.55662 12.489 6.65125L14.048 9.95625L17.533 10.4893C17.98 10.5573 18.158 11.1333 17.835 11.4633L15.313 14.0333L15.908 17.6643C15.985 18.1313 15.517 18.4863 15.117 18.2663L12 16.5513L8.883 18.2663C8.483 18.4863 8.015 18.1313 8.092 17.6643L8.687 14.0343L6.165 11.4633C5.842 11.1333 6.02 10.5573 6.467 10.4893L9.952 9.95625Z" stroke="white" stroke-width="1.5" stroke-linecap="round" stroke-linejoin="round"/>
</svg>
