<svg width="21" height="21" viewBox="0 0 21 21" fill="none" xmlns="http://www.w3.org/2000/svg">
<path d="M0 4.55838C0 3.56382 0.395088 2.60999 1.09835 1.90673C1.80161 1.20347 2.75544 0.80838 3.75 0.80838H17.25C18.2446 0.80838 19.1984 1.20347 19.9016 1.90673C20.6049 2.60999 21 3.56382 21 4.55838V12.0584C21 12.5508 20.903 13.0385 20.7145 13.4934C20.5261 13.9484 20.2499 14.3618 19.9016 14.71C19.5534 15.0583 19.14 15.3345 18.6851 15.5229C18.2301 15.7114 17.7425 15.8084 17.25 15.8084H11.532L6.9375 19.8284C6.72491 20.0142 6.46328 20.1349 6.18391 20.176C5.90454 20.2171 5.61925 20.1769 5.36214 20.0601C5.10504 19.9433 4.88701 19.755 4.73412 19.5176C4.58123 19.2802 4.49995 19.0038 4.5 18.7214V15.8084H3.75C2.75544 15.8084 1.80161 15.4133 1.09835 14.71C0.395088 14.0068 0 13.0529 0 12.0584V4.55838ZM3.75 2.30838C3.15326 2.30838 2.58097 2.54543 2.15901 2.96739C1.73705 3.38935 1.5 3.96164 1.5 4.55838V12.0584C1.5 12.6551 1.73705 13.2274 2.15901 13.6494C2.58097 14.0713 3.15326 14.3084 3.75 14.3084H6V18.6554L10.968 14.3084H17.25C17.8467 14.3084 18.419 14.0713 18.841 13.6494C19.2629 13.2274 19.5 12.6551 19.5 12.0584V4.55838C19.5 3.96164 19.2629 3.38935 18.841 2.96739C18.419 2.54543 17.8467 2.30838 17.25 2.30838H3.75Z" fill="white"/>
</svg>
