<svg width="24" height="24" viewBox="0 0 24 24" fill="none" xmlns="http://www.w3.org/2000/svg">
<path d="M22 12H23M12 2.00003V1.00003M12 23V22M20 20L19 19M20 4.00003L19 5.00003M4 20L5 19M4 4.00003L5 5.00003M1 12H2M9.952 9.62303L11.511 6.31803C11.553 6.2234 11.6216 6.14299 11.7084 6.08655C11.7952 6.03011 11.8965 6.00006 12 6.00006C12.1035 6.00006 12.2048 6.03011 12.2916 6.08655C12.3784 6.14299 12.447 6.2234 12.489 6.31803L14.048 9.62303L17.533 10.156C17.98 10.224 18.158 10.8 17.835 11.13L15.313 13.7L15.908 17.331C15.985 17.798 15.517 18.153 15.117 17.933L12 16.218L8.883 17.933C8.483 18.153 8.015 17.798 8.092 17.331L8.687 13.701L6.165 11.13C5.842 10.8 6.02 10.224 6.467 10.156L9.952 9.62303Z" stroke="white" stroke-width="1.5" stroke-linecap="round" stroke-linejoin="round"/>
</svg>
