<svg width="22" height="20" viewBox="0 0 22 20" fill="none" xmlns="http://www.w3.org/2000/svg">
<path d="M0.333313 4.22505C0.333313 3.23049 0.728401 2.27666 1.43166 1.5734C2.13492 0.87014 3.08875 0.475052 4.08331 0.475052H17.5833C18.5779 0.475052 19.5317 0.87014 20.235 1.5734C20.9382 2.27666 21.3333 3.23049 21.3333 4.22505V11.7251C21.3333 12.2175 21.2363 12.7051 21.0479 13.1601C20.8594 13.6151 20.5832 14.0285 20.235 14.3767C19.8867 14.7249 19.4733 15.0011 19.0184 15.1896C18.5634 15.3781 18.0758 15.4751 17.5833 15.4751H11.8653L7.27081 19.4951C7.05822 19.6809 6.79659 19.8016 6.51722 19.8427C6.23785 19.8838 5.95256 19.8435 5.69546 19.7268C5.43835 19.61 5.22032 19.4217 5.06743 19.1842C4.91454 18.9468 4.83326 18.6704 4.83331 18.3881V15.4751H4.08331C3.08875 15.4751 2.13492 15.08 1.43166 14.3767C0.728401 13.6734 0.333313 12.7196 0.333313 11.7251V4.22505ZM4.08331 1.97505C3.48658 1.97505 2.91428 2.2121 2.49232 2.63406C2.07037 3.05602 1.83331 3.62831 1.83331 4.22505V11.7251C1.83331 12.3218 2.07037 12.8941 2.49232 13.316C2.91428 13.738 3.48658 13.9751 4.08331 13.9751H6.33331V18.3221L11.3013 13.9751H17.5833C18.1801 13.9751 18.7523 13.738 19.1743 13.316C19.5963 12.8941 19.8333 12.3218 19.8333 11.7251V4.22505C19.8333 3.62831 19.5963 3.05602 19.1743 2.63406C18.7523 2.2121 18.1801 1.97505 17.5833 1.97505H4.08331Z" fill="white"/>
</svg>
