<svg width="22" height="20" viewBox="0 0 22 20" fill="none" xmlns="http://www.w3.org/2000/svg">
<path d="M0.333313 4.2251C0.333313 3.23054 0.728401 2.27671 1.43166 1.57345C2.13492 0.870186 3.08875 0.475098 4.08331 0.475098H17.5833C18.5779 0.475098 19.5317 0.870186 20.235 1.57345C20.9382 2.27671 21.3333 3.23054 21.3333 4.2251V11.7251C21.3333 12.2176 21.2363 12.7052 21.0479 13.1602C20.8594 13.6151 20.5832 14.0285 20.235 14.3767C19.8867 14.725 19.4733 15.0012 19.0184 15.1896C18.5634 15.3781 18.0758 15.4751 17.5833 15.4751H11.8653L7.27081 19.4951C7.05822 19.6809 6.79659 19.8016 6.51722 19.8427C6.23785 19.8838 5.95256 19.8436 5.69546 19.7268C5.43835 19.61 5.22032 19.4217 5.06743 19.1843C4.91454 18.9469 4.83326 18.6705 4.83331 18.3881V15.4751H4.08331C3.08875 15.4751 2.13492 15.08 1.43166 14.3767C0.728401 13.6735 0.333313 12.7197 0.333313 11.7251V4.2251ZM4.08331 1.9751C3.48658 1.9751 2.91428 2.21215 2.49232 2.63411C2.07037 3.05606 1.83331 3.62836 1.83331 4.2251V11.7251C1.83331 12.3218 2.07037 12.8941 2.49232 13.3161C2.91428 13.738 3.48658 13.9751 4.08331 13.9751H6.33331V18.3221L11.3013 13.9751H17.5833C18.1801 13.9751 18.7523 13.738 19.1743 13.3161C19.5963 12.8941 19.8333 12.3218 19.8333 11.7251V4.2251C19.8333 3.62836 19.5963 3.05606 19.1743 2.63411C18.7523 2.21215 18.1801 1.9751 17.5833 1.9751H4.08331Z" fill="white"/>
</svg>
