<svg width="24" height="25" viewBox="0 0 24 25" fill="none" xmlns="http://www.w3.org/2000/svg">
<path d="M22 12.3334H23M12 2.33337V1.33337M12 23.3334V22.3334M20 20.3334L19 19.3334M20 4.33337L19 5.33337M4 20.3334L5 19.3334M4 4.33337L5 5.33337M1 12.3334H2M9.952 9.95637L11.511 6.65137C11.553 6.55674 11.6216 6.47633 11.7084 6.41989C11.7952 6.36345 11.8965 6.33341 12 6.33341C12.1035 6.33341 12.2048 6.36345 12.2916 6.41989C12.3784 6.47633 12.447 6.55674 12.489 6.65137L14.048 9.95637L17.533 10.4894C17.98 10.5574 18.158 11.1334 17.835 11.4634L15.313 14.0334L15.908 17.6644C15.985 18.1314 15.517 18.4864 15.117 18.2664L12 16.5514L8.883 18.2664C8.483 18.4864 8.015 18.1314 8.092 17.6644L8.687 14.0344L6.165 11.4634C5.842 11.1334 6.02 10.5574 6.467 10.4894L9.952 9.95637Z" stroke="white" stroke-width="1.5" stroke-linecap="round" stroke-linejoin="round"/>
</svg>
