<svg width="21" height="20" viewBox="0 0 21 20" fill="none" xmlns="http://www.w3.org/2000/svg">
<path d="M0 3.89171C0 2.89715 0.395088 1.94332 1.09835 1.24006C1.80161 0.536797 2.75544 0.141708 3.75 0.141708H17.25C18.2446 0.141708 19.1984 0.536797 19.9016 1.24006C20.6049 1.94332 21 2.89715 21 3.89171V11.3917C21 11.8842 20.903 12.3718 20.7145 12.8268C20.5261 13.2817 20.2499 13.6951 19.9016 14.0434C19.5534 14.3916 19.14 14.6678 18.6851 14.8563C18.2301 15.0447 17.7425 15.1417 17.25 15.1417H11.532L6.9375 19.1617C6.72491 19.3476 6.46328 19.4682 6.18391 19.5093C5.90454 19.5504 5.61925 19.5102 5.36214 19.3934C5.10504 19.2767 4.88701 19.0883 4.73412 18.8509C4.58123 18.6135 4.49995 18.3371 4.5 18.0547V15.1417H3.75C2.75544 15.1417 1.80161 14.7466 1.09835 14.0434C0.395088 13.3401 0 12.3863 0 11.3917V3.89171ZM3.75 1.64171C3.15326 1.64171 2.58097 1.87876 2.15901 2.30072C1.73705 2.72268 1.5 3.29497 1.5 3.89171V11.3917C1.5 11.9884 1.73705 12.5607 2.15901 12.9827C2.58097 13.4047 3.15326 13.6417 3.75 13.6417H6V17.9887L10.968 13.6417H17.25C17.8467 13.6417 18.419 13.4047 18.841 12.9827C19.2629 12.5607 19.5 11.9884 19.5 11.3917V3.89171C19.5 3.29497 19.2629 2.72268 18.841 2.30072C18.419 1.87876 17.8467 1.64171 17.25 1.64171H3.75Z" fill="white"/>
</svg>
