<svg width="25" height="25" viewBox="0 0 25 25" fill="none" xmlns="http://www.w3.org/2000/svg">
<path d="M22.6667 12.6667H23.6667M12.6667 2.66669V1.66669M12.6667 23.6667V22.6667M20.6667 20.6667L19.6667 19.6667M20.6667 4.66669L19.6667 5.66669M4.66666 20.6667L5.66666 19.6667M4.66666 4.66669L5.66666 5.66669M1.66666 12.6667H2.66666M10.6187 10.2897L12.1777 6.98469C12.2197 6.89005 12.2882 6.80964 12.375 6.7532C12.4618 6.69676 12.5631 6.66672 12.6667 6.66672C12.7702 6.66672 12.8715 6.69676 12.9583 6.7532C13.0451 6.80964 13.1137 6.89005 13.1557 6.98469L14.7147 10.2897L18.1997 10.8227C18.6467 10.8907 18.8247 11.4667 18.5017 11.7967L15.9797 14.3667L16.5747 17.9977C16.6517 18.4647 16.1837 18.8197 15.7837 18.5997L12.6667 16.8847L9.54966 18.5997C9.14966 18.8197 8.68166 18.4647 8.75866 17.9977L9.35366 14.3677L6.83166 11.7967C6.50866 11.4667 6.68666 10.8907 7.13366 10.8227L10.6187 10.2897Z" stroke="white" stroke-width="1.5" stroke-linecap="round" stroke-linejoin="round"/>
</svg>
