<svg width="25" height="25" viewBox="0 0 25 25" fill="none" xmlns="http://www.w3.org/2000/svg">
<path d="M22.3333 12.6667H23.3333M12.3333 2.66675V1.66675M12.3333 23.6667V22.6667M20.3333 20.6667L19.3333 19.6667M20.3333 4.66675L19.3333 5.66675M4.33331 20.6667L5.33331 19.6667M4.33331 4.66675L5.33331 5.66675M1.33331 12.6667H2.33331M10.2853 10.2897L11.8443 6.98475C11.8863 6.89012 11.9549 6.8097 12.0417 6.75326C12.1285 6.69682 12.2298 6.66678 12.3333 6.66678C12.4368 6.66678 12.5382 6.69682 12.625 6.75326C12.7118 6.8097 12.7803 6.89012 12.8223 6.98475L14.3813 10.2897L17.8663 10.8227C18.3133 10.8907 18.4913 11.4667 18.1683 11.7967L15.6463 14.3667L16.2413 17.9977C16.3183 18.4647 15.8503 18.8197 15.4503 18.5997L12.3333 16.8847L9.21631 18.5997C8.81631 18.8197 8.34831 18.4647 8.42531 17.9977L9.02031 14.3677L6.49831 11.7967C6.17531 11.4667 6.35331 10.8907 6.80031 10.8227L10.2853 10.2897Z" stroke="white" stroke-width="1.5" stroke-linecap="round" stroke-linejoin="round"/>
</svg>
