<svg width="16" height="17" viewBox="0 0 16 17" fill="none" xmlns="http://www.w3.org/2000/svg">
<path d="M15.5459 14.4545C15.7572 14.6658 15.876 14.9525 15.876 15.2513C15.876 15.5502 15.7572 15.8369 15.5459 16.0482C15.3346 16.2596 15.0479 16.3783 14.749 16.3783C14.4501 16.3783 14.1635 16.2596 13.9521 16.0482L7.99996 10.0942L2.0459 16.0463C1.83455 16.2577 1.54791 16.3764 1.24902 16.3764C0.950136 16.3764 0.663491 16.2577 0.452147 16.0463C0.240802 15.835 0.12207 15.5484 0.12207 15.2495C0.12207 14.9506 0.240802 14.6639 0.452147 14.4526L6.40621 8.50041L0.454022 2.54635C0.242677 2.335 0.123945 2.04836 0.123945 1.74947C0.123945 1.45058 0.242677 1.16394 0.454022 0.952596C0.665366 0.741252 0.95201 0.622519 1.2509 0.622519C1.54978 0.622519 1.83643 0.741252 2.04777 0.952596L7.99996 6.90666L13.954 0.951658C14.1654 0.740314 14.452 0.621582 14.7509 0.621582C15.0498 0.621582 15.3364 0.740314 15.5478 0.951658C15.7591 1.163 15.8778 1.44965 15.8778 1.74853C15.8778 2.04742 15.7591 2.33406 15.5478 2.54541L9.59371 8.50041L15.5459 14.4545Z" fill="#181A1B"/>
</svg>
