<svg width="21" height="20" viewBox="0 0 21 20" fill="none" xmlns="http://www.w3.org/2000/svg">
<path d="M-3.05176e-05 4.2251C-3.05176e-05 3.23054 0.395058 2.27671 1.09832 1.57345C1.80158 0.870186 2.75541 0.475098 3.74997 0.475098H17.25C18.2445 0.475098 19.1984 0.870186 19.9016 1.57345C20.6049 2.27671 21 3.23054 21 4.2251V11.7251C21 12.2176 20.903 12.7052 20.7145 13.1602C20.5261 13.6151 20.2498 14.0285 19.9016 14.3767C19.5534 14.725 19.14 15.0012 18.685 15.1896C18.2301 15.3781 17.7424 15.4751 17.25 15.4751H11.532L6.93747 19.4951C6.72488 19.6809 6.46325 19.8016 6.18388 19.8427C5.90451 19.8838 5.61922 19.8436 5.36211 19.7268C5.10501 19.61 4.88698 19.4217 4.73409 19.1843C4.5812 18.9469 4.49992 18.6705 4.49997 18.3881V15.4751H3.74997C2.75541 15.4751 1.80158 15.08 1.09832 14.3767C0.395058 13.6735 -3.05176e-05 12.7197 -3.05176e-05 11.7251V4.2251ZM3.74997 1.9751C3.15323 1.9751 2.58094 2.21215 2.15898 2.63411C1.73702 3.05606 1.49997 3.62836 1.49997 4.2251V11.7251C1.49997 12.3218 1.73702 12.8941 2.15898 13.3161C2.58094 13.738 3.15323 13.9751 3.74997 13.9751H5.99997V18.3221L10.968 13.9751H17.25C17.8467 13.9751 18.419 13.738 18.841 13.3161C19.2629 12.8941 19.5 12.3218 19.5 11.7251V4.2251C19.5 3.62836 19.2629 3.05606 18.841 2.63411C18.419 2.21215 17.8467 1.9751 17.25 1.9751H3.74997Z" fill="white"/>
</svg>
