<svg width="70" height="70" viewBox="0 0 70 70" fill="none" xmlns="http://www.w3.org/2000/svg">
<rect y="70" width="70" height="70" rx="35" transform="rotate(-90 0 70)" fill="white" fill-opacity="0.2"/>
<path d="M44.5501 54.1195C45.0733 53.5556 45.3672 52.7909 45.3672 51.9935C45.3672 51.1961 45.0733 50.4313 44.5501 49.8674L30.7361 34.9818L44.5501 20.0963C45.0584 19.5291 45.3397 18.7695 45.3334 17.981C45.327 17.1926 45.0335 16.4383 44.5161 15.8808C43.9987 15.3232 43.2987 15.007 42.567 15.0001C41.8353 14.9933 41.1304 15.2964 40.604 15.8442L24.8171 32.8558C24.2939 33.4197 24 34.1844 24 34.9818C24 35.7792 24.2939 36.544 24.8171 37.1079L40.604 54.1195C41.1274 54.6833 41.8371 55 42.5771 55C43.3171 55 44.0268 54.6833 44.5501 54.1195Z" fill="#181A1B" fill-opacity="0.5"/>
</svg>
