<svg width="21" height="20" viewBox="0 0 21 20" fill="none" xmlns="http://www.w3.org/2000/svg">
<path d="M0 3.89172C0 2.89716 0.395088 1.94333 1.09835 1.24007C1.80161 0.536812 2.75544 0.141724 3.75 0.141724H17.25C18.2446 0.141724 19.1984 0.536812 19.9016 1.24007C20.6049 1.94333 21 2.89716 21 3.89172V11.3917C21 11.8842 20.903 12.3718 20.7145 12.8268C20.5261 13.2818 20.2499 13.6952 19.9016 14.0434C19.5534 14.3916 19.14 14.6678 18.6851 14.8563C18.2301 15.0447 17.7425 15.1417 17.25 15.1417H11.532L6.9375 19.1617C6.72491 19.3476 6.46328 19.4683 6.18391 19.5093C5.90454 19.5504 5.61925 19.5102 5.36214 19.3934C5.10504 19.2767 4.88701 19.0883 4.73412 18.8509C4.58123 18.6135 4.49995 18.3371 4.5 18.0547V15.1417H3.75C2.75544 15.1417 1.80161 14.7466 1.09835 14.0434C0.395088 13.3401 0 12.3863 0 11.3917V3.89172ZM3.75 1.64172C3.15326 1.64172 2.58097 1.87878 2.15901 2.30073C1.73705 2.72269 1.5 3.29499 1.5 3.89172V11.3917C1.5 11.9885 1.73705 12.5608 2.15901 12.9827C2.58097 13.4047 3.15326 13.6417 3.75 13.6417H6V17.9887L10.968 13.6417H17.25C17.8467 13.6417 18.419 13.4047 18.841 12.9827C19.2629 12.5608 19.5 11.9885 19.5 11.3917V3.89172C19.5 3.29499 19.2629 2.72269 18.841 2.30073C18.419 1.87878 17.8467 1.64172 17.25 1.64172H3.75Z" fill="white"/>
</svg>