<svg width="70" height="50" viewBox="0 0 70 50" fill="none" xmlns="http://www.w3.org/2000/svg">
<g clip-path="url(#clip0_232_703)">
<path d="M30.4125 25.2C29.0625 25.2417 27.9583 25.775 27.1 26.8H25.425C24.7417 26.8 24.1667 26.6312 23.7 26.2937C23.2333 25.9562 23 25.4625 23 24.8125C23 21.8708 23.5167 20.4 24.55 20.4C24.6 20.4 24.7812 20.4875 25.0938 20.6625C25.4062 20.8375 25.8125 21.0146 26.3125 21.1937C26.8125 21.3729 27.3083 21.4625 27.8 21.4625C28.3583 21.4625 28.9125 21.3667 29.4625 21.175C29.4208 21.4833 29.4 21.7583 29.4 22C29.4 23.1583 29.7375 24.225 30.4125 25.2ZM43.8 33.1625C43.8 34.1625 43.4958 34.9521 42.8875 35.5312C42.2792 36.1104 41.4708 36.4 40.4625 36.4H29.5375C28.5292 36.4 27.7208 36.1104 27.1125 35.5312C26.5042 34.9521 26.2 34.1625 26.2 33.1625C26.2 32.7208 26.2146 32.2896 26.2438 31.8687C26.2729 31.4479 26.3312 30.9937 26.4188 30.5062C26.5063 30.0187 26.6167 29.5667 26.75 29.15C26.8833 28.7333 27.0625 28.3271 27.2875 27.9312C27.5125 27.5354 27.7708 27.1979 28.0625 26.9187C28.3542 26.6396 28.7104 26.4167 29.1312 26.25C29.5521 26.0833 30.0167 26 30.525 26C30.6083 26 30.7875 26.0896 31.0625 26.2687C31.3375 26.4479 31.6417 26.6479 31.975 26.8687C32.3083 27.0896 32.7542 27.2896 33.3125 27.4687C33.8708 27.6479 34.4333 27.7375 35 27.7375C35.5667 27.7375 36.1292 27.6479 36.6875 27.4687C37.2458 27.2896 37.6917 27.0896 38.025 26.8687C38.3583 26.6479 38.6625 26.4479 38.9375 26.2687C39.2125 26.0896 39.3917 26 39.475 26C39.9833 26 40.4479 26.0833 40.8687 26.25C41.2896 26.4167 41.6458 26.6396 41.9375 26.9187C42.2292 27.1979 42.4875 27.5354 42.7125 27.9312C42.9375 28.3271 43.1167 28.7333 43.25 29.15C43.3833 29.5667 43.4937 30.0187 43.5813 30.5062C43.6688 30.9937 43.7271 31.4479 43.7563 31.8687C43.7854 32.2896 43.8 32.7208 43.8 33.1625ZM31 17.2C31 18.0833 30.6875 18.8375 30.0625 19.4625C29.4375 20.0875 28.6833 20.4 27.8 20.4C26.9167 20.4 26.1625 20.0875 25.5375 19.4625C24.9125 18.8375 24.6 18.0833 24.6 17.2C24.6 16.3167 24.9125 15.5625 25.5375 14.9375C26.1625 14.3125 26.9167 14 27.8 14C28.6833 14 29.4375 14.3125 30.0625 14.9375C30.6875 15.5625 31 16.3167 31 17.2ZM39.8 22C39.8 23.325 39.3313 24.4562 38.3938 25.3937C37.4563 26.3312 36.325 26.8 35 26.8C33.675 26.8 32.5437 26.3312 31.6062 25.3937C30.6688 24.4562 30.2 23.325 30.2 22C30.2 20.675 30.6688 19.5437 31.6062 18.6062C32.5437 17.6687 33.675 17.2 35 17.2C36.325 17.2 37.4563 17.6687 38.3938 18.6062C39.3313 19.5437 39.8 20.675 39.8 22ZM47 24.8125C47 25.4625 46.7667 25.9562 46.3 26.2937C45.8333 26.6312 45.2583 26.8 44.575 26.8H42.9C42.0417 25.775 40.9375 25.2417 39.5875 25.2C40.2625 24.225 40.6 23.1583 40.6 22C40.6 21.7583 40.5792 21.4833 40.5375 21.175C41.0875 21.3667 41.6417 21.4625 42.2 21.4625C42.6917 21.4625 43.1875 21.3729 43.6875 21.1937C44.1875 21.0146 44.5938 20.8375 44.9062 20.6625C45.2188 20.4875 45.4 20.4 45.45 20.4C46.4833 20.4 47 21.8708 47 24.8125ZM45.4 17.2C45.4 18.0833 45.0875 18.8375 44.4625 19.4625C43.8375 20.0875 43.0833 20.4 42.2 20.4C41.3167 20.4 40.5625 20.0875 39.9375 19.4625C39.3125 18.8375 39 18.0833 39 17.2C39 16.3167 39.3125 15.5625 39.9375 14.9375C40.5625 14.3125 41.3167 14 42.2 14C43.0833 14 43.8375 14.3125 44.4625 14.9375C45.0875 15.5625 45.4 16.3167 45.4 17.2Z" fill="#181A1B"/>
</g>
<defs>
<clipPath id="clip0_232_703">
<rect width="24" height="22.4" fill="white" transform="translate(23 14)"/>
</clipPath>
</defs>
</svg>
