<svg width="70" height="50" viewBox="0 0 70 50" fill="none" xmlns="http://www.w3.org/2000/svg">
<path d="M45.1836 24.8359L35.5297 15.1891C35.4602 15.1194 35.3776 15.0642 35.2867 15.0265C35.1958 14.9888 35.0984 14.9694 35 14.9694C34.9016 14.9694 34.8042 14.9888 34.7133 15.0265C34.6224 15.0642 34.5398 15.1194 34.4703 15.1891L24.8164 24.8359C24.5352 25.1172 24.3758 25.4992 24.3758 25.8977C24.3758 26.725 25.0484 27.3977 25.8758 27.3977H26.893V34.2812C26.893 34.6961 27.2281 35.0312 27.643 35.0312H33.5V29.7813H36.125V35.0312H42.357C42.7719 35.0312 43.107 34.6961 43.107 34.2812V27.3977H44.1242C44.5227 27.3977 44.9047 27.2406 45.1859 26.957C45.7695 26.3711 45.7695 25.4219 45.1836 24.8359Z" fill="#181A1B"/>
</svg>
