<svg width="44" height="7" viewBox="0 0 44 7" fill="none" xmlns="http://www.w3.org/2000/svg">
<path d="M3.05556 0.444458C1.36802 0.444458 0 1.81248 0 3.50001C0 5.18755 1.36802 6.55557 3.05556 6.55557H7.7177C9.40524 6.55557 10.7733 5.18755 10.7733 3.50001C10.7733 1.81248 9.40524 0.444458 7.71771 0.444458H3.05556ZM19.2155 0.444458C17.5279 0.444458 16.1599 1.81248 16.1599 3.50001C16.1599 5.18755 17.5279 6.55557 19.2155 6.55557H23.8776C25.5651 6.55557 26.9332 5.18755 26.9332 3.50001C26.9332 1.81248 25.5651 0.444458 23.8776 0.444458H19.2155ZM35.3753 0.444458C33.6878 0.444458 32.3198 1.81248 32.3198 3.50001C32.3198 5.18755 33.6878 6.55557 35.3753 6.55557H40.0375C41.725 6.55557 43.0931 5.18755 43.0931 3.50001C43.0931 1.81248 41.725 0.444458 40.0375 0.444458H35.3753Z" fill="black"/>
</svg>
