<svg width="70" height="50" viewBox="0 0 70 50" fill="none" xmlns="http://www.w3.org/2000/svg">
<g clip-path="url(#clip0_232_880)">
<path fill-rule="evenodd" clip-rule="evenodd" d="M35 17C32.213 17 29.737 18.257 27.974 19.813C27.09 20.594 26.36 21.47 25.846 22.344C25.34 23.201 25 24.13 25 25C25 25.87 25.34 26.799 25.846 27.656C26.36 28.529 27.089 29.406 27.974 30.187C29.737 31.743 32.214 33 35 33C37.787 33 40.263 31.743 42.026 30.187C42.911 29.406 43.64 28.529 44.154 27.656C44.66 26.799 45 25.87 45 25C45 24.13 44.66 23.201 44.154 22.344C43.64 21.471 42.911 20.594 42.026 19.813C40.263 18.257 37.786 17 35 17ZM37 25C37.36 25 37.697 24.905 37.989 24.739C38.0423 25.3522 37.9057 25.967 37.5977 26.4999C37.2897 27.0328 36.8252 27.4581 36.2673 27.718C35.7094 27.978 35.085 28.0601 34.4789 27.9531C33.8727 27.8461 33.3142 27.5553 32.8789 27.1201C32.4437 26.6848 32.1529 26.1263 32.0459 25.5201C31.9389 24.914 32.021 24.2896 32.281 23.7317C32.5409 23.1738 32.9662 22.7093 33.4991 22.4013C34.0321 22.0933 34.6468 21.9567 35.26 22.01C35.0866 22.3144 34.9962 22.6589 34.9978 23.0092C34.9994 23.3595 35.093 23.7032 35.2692 24.0059C35.4454 24.3087 35.698 24.5599 36.0017 24.7343C36.3055 24.9088 36.6497 25.0004 37 25Z" fill="#31C787"/>
</g>
<defs>
<clipPath id="clip0_232_880">
<rect width="24" height="24" fill="white" transform="translate(23 13)"/>
</clipPath>
</defs>
</svg>
